<svg xmlns="http://www.w3.org/2000/svg" xmlns:xlink="http://www.w3.org/1999/xlink" width="500" zoomAndPan="magnify" viewBox="0 0 375 374.999991" height="500" preserveAspectRatio="xMidYMid meet" version="1.0"><defs><clipPath id="7782e2d34f"><path d="M 199.878906 7.136719 L 346.128906 7.136719 L 346.128906 200.636719 L 199.878906 200.636719 Z M 199.878906 7.136719 " clip-rule="nonzero"/></clipPath><clipPath id="c0e88ca6a1"><path d="M 12.921875 219 L 176.421875 219 L 176.421875 363 L 12.921875 363 Z M 12.921875 219 " clip-rule="nonzero"/></clipPath></defs><rect x="-37.5" width="450" fill="#ffffff" y="-37.499999" height="449.999989" fill-opacity="1"/><rect x="-37.5" width="450" fill="#ffffff" y="-37.499999" height="449.999989" fill-opacity="1"/><rect x="-37.5" width="450" fill="#6ef2f1" y="-37.499999" height="449.999989" fill-opacity="1"/><g clip-path="url(#7782e2d34f)"><path fill="#5e6061" d="M 346.109375 189.492188 C 346.121094 195.464844 341.292969 200.316406 335.324219 200.328125 L 211.0625 200.582031 C 205.097656 200.597656 200.25 195.765625 200.238281 189.792969 L 199.882812 18.277344 C 199.871094 12.304688 204.699219 7.453125 210.667969 7.441406 L 334.929688 7.183594 C 340.894531 7.171875 345.742188 12.003906 345.753906 17.976562 L 346.109375 189.492188 " fill-opacity="1" fill-rule="nonzero"/></g><path fill="#e9e8e7" d="M 334.8125 59.617188 C 334.816406 62.519531 332.453125 64.871094 329.539062 64.878906 L 216.292969 65.109375 C 213.375 65.117188 211.003906 62.769531 211 59.875 L 210.929688 26.882812 C 210.925781 23.984375 213.285156 21.632812 216.203125 21.625 L 329.445312 21.390625 C 332.367188 21.386719 334.738281 23.730469 334.742188 26.628906 L 334.8125 59.617188 " fill-opacity="1" fill-rule="nonzero"/><path fill="#959595" d="M 237.203125 122.628906 C 237.207031 124.113281 235.925781 125.320312 234.34375 125.324219 L 217.511719 125.355469 C 215.933594 125.359375 214.648438 124.160156 214.644531 122.675781 L 214.613281 107.460938 C 214.609375 105.976562 215.890625 104.769531 217.46875 104.765625 L 234.304688 104.730469 C 235.886719 104.726562 237.171875 105.929688 237.171875 107.417969 L 237.203125 122.628906 " fill-opacity="1" fill-rule="nonzero"/><path fill="#959595" d="M 237.265625 153.515625 C 237.269531 154.996094 235.992188 156.207031 234.410156 156.210938 L 217.578125 156.246094 C 215.996094 156.25 214.710938 155.046875 214.707031 153.5625 L 214.675781 138.347656 C 214.675781 136.863281 215.953125 135.65625 217.535156 135.652344 L 234.367188 135.617188 C 235.949219 135.613281 237.234375 136.820312 237.238281 138.304688 L 237.265625 153.515625 " fill-opacity="1" fill-rule="nonzero"/><path fill="#959595" d="M 237.332031 184.402344 C 237.335938 185.886719 236.054688 187.09375 234.472656 187.097656 L 217.640625 187.132812 C 216.058594 187.132812 214.773438 185.933594 214.773438 184.449219 L 214.742188 169.238281 C 214.738281 167.75 216.015625 166.542969 217.597656 166.539062 L 234.429688 166.503906 C 236.011719 166.5 237.296875 167.703125 237.300781 169.1875 L 237.332031 184.402344 " fill-opacity="1" fill-rule="nonzero"/><path fill="#959595" d="M 268.613281 122.5625 C 268.613281 124.046875 267.332031 125.253906 265.753906 125.257812 L 248.921875 125.292969 C 247.339844 125.296875 246.054688 124.09375 246.050781 122.609375 L 246.019531 107.398438 C 246.015625 105.910156 247.296875 104.707031 248.878906 104.703125 L 265.710938 104.667969 C 267.289062 104.664062 268.574219 105.863281 268.578125 107.351562 L 268.613281 122.5625 " fill-opacity="1" fill-rule="nonzero"/><path fill="#959595" d="M 268.671875 153.449219 C 268.679688 154.9375 267.398438 156.140625 265.816406 156.144531 L 248.984375 156.179688 C 247.40625 156.183594 246.117188 154.980469 246.113281 153.496094 L 246.082031 138.285156 C 246.078125 136.800781 247.359375 135.59375 248.941406 135.589844 L 265.777344 135.554688 C 267.355469 135.550781 268.640625 136.753906 268.640625 138.238281 L 268.671875 153.449219 " fill-opacity="1" fill-rule="nonzero"/><path fill="#959595" d="M 268.738281 184.339844 C 268.738281 185.820312 267.460938 187.027344 265.878906 187.03125 L 249.046875 187.066406 C 247.46875 187.070312 246.179688 185.871094 246.175781 184.382812 L 246.144531 169.171875 C 246.144531 167.683594 247.425781 166.476562 249.003906 166.472656 L 265.839844 166.441406 C 267.417969 166.4375 268.703125 167.636719 268.707031 169.125 L 268.738281 184.339844 " fill-opacity="1" fill-rule="nonzero"/><path fill="#959595" d="M 300.019531 122.496094 C 300.023438 123.984375 298.742188 125.191406 297.160156 125.191406 L 280.328125 125.226562 C 278.746094 125.230469 277.460938 124.03125 277.457031 122.542969 L 277.425781 107.332031 C 277.421875 105.847656 278.703125 104.640625 280.285156 104.636719 L 297.121094 104.601562 C 298.699219 104.601562 299.984375 105.800781 299.988281 107.289062 L 300.019531 122.496094 " fill-opacity="1" fill-rule="nonzero"/><path fill="#959595" d="M 330.632812 122.824219 C 330.636719 124.308594 329.355469 125.515625 327.773438 125.519531 L 310.941406 125.554688 C 309.359375 125.558594 308.074219 124.355469 308.070312 122.871094 L 308.042969 107.65625 C 308.039062 106.171875 309.316406 104.964844 310.898438 104.960938 L 327.730469 104.929688 C 329.3125 104.925781 330.601562 106.125 330.601562 107.613281 L 330.632812 122.824219 " fill-opacity="1" fill-rule="nonzero"/><path fill="#959595" d="M 300.082031 153.386719 C 300.085938 154.871094 298.804688 156.078125 297.226562 156.082031 L 280.394531 156.117188 C 278.808594 156.117188 277.523438 154.914062 277.523438 153.429688 L 277.488281 138.21875 C 277.488281 136.734375 278.765625 135.527344 280.351562 135.523438 L 297.183594 135.488281 C 298.761719 135.484375 300.046875 136.6875 300.050781 138.175781 L 300.082031 153.386719 " fill-opacity="1" fill-rule="nonzero"/><path fill="#959595" d="M 300.144531 184.273438 C 300.148438 185.757812 298.871094 186.964844 297.289062 186.96875 L 280.453125 187.003906 C 278.875 187.003906 277.589844 185.804688 277.585938 184.320312 L 277.554688 169.105469 C 277.550781 167.617188 278.832031 166.414062 280.414062 166.410156 L 297.246094 166.375 C 298.824219 166.371094 300.109375 167.574219 300.113281 169.058594 L 300.144531 184.273438 " fill-opacity="1" fill-rule="nonzero"/><path fill="#cdccca" d="M 237.9375 93.117188 C 237.9375 94.40625 236.832031 95.453125 235.460938 95.453125 L 216.277344 95.492188 C 214.90625 95.496094 213.792969 94.453125 213.789062 93.167969 L 213.761719 80.164062 C 213.761719 78.875 214.871094 77.832031 216.242188 77.828125 L 235.425781 77.785156 C 236.792969 77.785156 237.90625 78.828125 237.910156 80.113281 L 237.9375 93.117188 " fill-opacity="1" fill-rule="nonzero"/><path fill="#cdccca" d="M 269.339844 93.054688 C 269.34375 94.339844 268.238281 95.386719 266.867188 95.386719 L 247.683594 95.425781 C 246.3125 95.429688 245.199219 94.386719 245.199219 93.101562 L 245.171875 80.097656 C 245.167969 78.808594 246.277344 77.765625 247.644531 77.761719 L 266.828125 77.722656 C 268.203125 77.71875 269.3125 78.761719 269.3125 80.046875 L 269.339844 93.054688 " fill-opacity="1" fill-rule="nonzero"/><path fill="#cdccca" d="M 300.75 92.988281 C 300.75 94.277344 299.644531 95.320312 298.273438 95.324219 L 279.089844 95.363281 C 277.71875 95.363281 276.605469 94.328125 276.601562 93.039062 L 276.578125 80.035156 C 276.574219 78.746094 277.683594 77.703125 279.054688 77.699219 L 298.238281 77.660156 C 299.605469 77.65625 300.71875 78.695312 300.722656 79.984375 L 300.75 92.988281 " fill-opacity="1" fill-rule="nonzero"/><path fill="#cdccca" d="M 332.15625 92.925781 C 332.15625 94.210938 331.050781 95.257812 329.679688 95.257812 L 310.496094 95.300781 C 309.128906 95.300781 308.015625 94.261719 308.011719 92.972656 L 307.984375 79.96875 C 307.984375 78.679688 309.089844 77.636719 310.460938 77.632812 L 329.644531 77.59375 C 331.015625 77.589844 332.125 78.632812 332.128906 79.917969 L 332.15625 92.925781 " fill-opacity="1" fill-rule="nonzero"/><path fill="#dc8531" d="M 332.332031 179.441406 C 332.339844 183.085938 331.238281 186.042969 329.867188 186.042969 L 310.679688 186.085938 C 309.3125 186.085938 308.195312 183.136719 308.1875 179.492188 L 308.113281 142.671875 C 308.105469 139.027344 309.210938 136.070312 310.578125 136.070312 L 329.761719 136.027344 C 331.132812 136.027344 332.25 138.976562 332.257812 142.621094 L 332.332031 179.441406 " fill-opacity="1" fill-rule="nonzero"/><path fill="#464648" d="M 289.90625 29.46875 L 288.542969 27.855469 L 289.898438 26.234375 L 301.839844 26.199219 L 303.234375 27.8125 L 301.851562 29.433594 L 289.90625 29.46875 " fill-opacity="1" fill-rule="nonzero"/><path fill="#464648" d="M 289.101562 44.871094 L 287.742188 43.257812 L 289.089844 41.636719 L 301.039062 41.601562 L 302.433594 43.214844 L 301.046875 44.835938 L 289.101562 44.871094 " fill-opacity="1" fill-rule="nonzero"/><path fill="#464648" d="M 288.421875 60.738281 L 286.503906 59.121094 L 288.410156 57.503906 L 300.359375 57.46875 L 301.753906 59.078125 L 300.367188 60.699219 L 288.421875 60.738281 " fill-opacity="1" fill-rule="nonzero"/><path fill="#464648" d="M 313.230469 29.191406 L 311.867188 27.574219 L 313.21875 25.953125 L 325.164062 25.917969 L 326.558594 27.53125 L 325.175781 29.152344 L 313.230469 29.191406 " fill-opacity="1" fill-rule="nonzero"/><path fill="#464648" d="M 311.714844 44.824219 L 310.351562 43.210938 L 311.703125 41.589844 L 323.648438 41.554688 L 325.042969 43.167969 L 323.660156 44.792969 L 311.714844 44.824219 " fill-opacity="1" fill-rule="nonzero"/><path fill="#464648" d="M 310.636719 60.460938 L 309.273438 58.84375 L 310.625 57.226562 L 322.570312 57.191406 L 323.960938 58.800781 L 322.578125 60.421875 L 310.636719 60.460938 " fill-opacity="1" fill-rule="nonzero"/><path fill="#464648" d="M 279.46875 57.261719 L 277.75 58.484375 L 276.246094 57 L 277.214844 45.085938 L 278.9375 43.828125 L 280.433594 45.34375 L 279.46875 57.261719 " fill-opacity="1" fill-rule="nonzero"/><path fill="#464648" d="M 327.410156 41.550781 L 325.691406 42.777344 L 324.1875 41.292969 L 325.15625 29.375 L 326.875 28.117188 L 328.375 29.636719 L 327.410156 41.550781 " fill-opacity="1" fill-rule="nonzero"/><path fill="#464648" d="M 304.644531 41.601562 L 302.921875 42.820312 L 301.421875 41.335938 L 302.382812 29.421875 L 304.109375 28.164062 L 305.605469 29.683594 L 304.644531 41.601562 " fill-opacity="1" fill-rule="nonzero"/><path fill="#464648" d="M 280.691406 41.648438 L 278.972656 42.871094 L 277.46875 41.386719 L 278.4375 29.46875 L 280.15625 28.214844 L 281.652344 29.730469 L 280.691406 41.648438 " fill-opacity="1" fill-rule="nonzero"/><path fill="#464648" d="M 326.191406 57.164062 L 324.472656 58.386719 L 322.96875 56.902344 L 323.933594 44.984375 L 325.660156 43.730469 L 327.152344 45.25 L 326.191406 57.164062 " fill-opacity="1" fill-rule="nonzero"/><path fill="#464648" d="M 287.613281 57.246094 L 285.898438 58.46875 L 284.390625 56.980469 L 285.359375 45.066406 L 287.082031 43.8125 L 288.578125 45.328125 L 287.613281 57.246094 " fill-opacity="1" fill-rule="nonzero"/><path fill="#5a5c68" d="M 94.671875 276.304688 C 86.59375 276.304688 80.046875 282.859375 80.046875 290.949219 C 80.046875 299.039062 86.59375 305.59375 94.671875 305.59375 C 102.753906 305.59375 109.300781 299.039062 109.300781 290.949219 C 109.300781 282.859375 102.753906 276.304688 94.671875 276.304688 Z M 94.671875 276.304688 " fill-opacity="1" fill-rule="nonzero"/><g clip-path="url(#c0e88ca6a1)"><path fill="#5a5c68" d="M 43.675781 316.882812 C 45.113281 317.363281 46.550781 317.847656 48.019531 318.261719 C 47.542969 320.179688 47.128906 322.066406 46.738281 324.019531 C 43.386719 341.769531 46.003906 355.835938 54.371094 360.664062 C 62.996094 365.648438 77.492188 360.535156 91.605469 348.160156 C 92.722656 347.171875 93.839844 346.148438 94.957031 345.054688 C 96.363281 346.433594 97.832031 347.742188 99.296875 349.019531 C 112.964844 360.785156 126.472656 365.546875 134.8125 360.726562 C 143.4375 355.738281 146.242188 340.617188 142.605469 322.199219 C 142.320312 320.792969 142 319.351562 141.644531 317.878906 C 142.667969 317.59375 143.65625 317.273438 144.648438 316.953125 C 163.078125 310.847656 176.421875 300.964844 176.421875 290.828125 C 176.421875 281.140625 163.839844 271.738281 146.46875 265.757812 L 146.46875 265.75 C 144.746094 265.179688 143.019531 264.632812 141.296875 264.121094 C 141.582031 262.941406 141.84375 261.753906 142.09375 260.574219 C 146.027344 241.515625 143.4375 226.207031 134.714844 221.152344 C 126.316406 216.324219 112.617188 221.34375 98.761719 233.429688 C 97.382812 234.613281 96.050781 235.859375 94.769531 237.109375 C 93.902344 236.277344 93.011719 235.445312 92.117188 234.644531 C 77.585938 221.726562 63.027344 216.289062 54.308594 221.378906 C 45.941406 226.242188 43.449219 240.660156 46.964844 258.683594 C 47.320312 260.476562 47.699219 262.230469 48.144531 264.023438 C 46.101562 264.597656 44.089844 265.238281 42.203125 265.914062 C 25.152344 271.828125 12.921875 281.167969 12.921875 290.828125 C 12.921875 300.804688 25.949219 310.804688 43.675781 316.882812 Z M 87.105469 342.933594 C 81.839844 347.765625 75.734375 351.597656 69.09375 354.222656 C 65.550781 355.914062 61.460938 356.078125 57.816406 354.640625 C 52.742188 351.699219 50.628906 340.410156 53.503906 325.21875 C 53.859375 323.433594 54.242188 321.636719 54.683594 319.878906 C 61.835938 321.414062 69.050781 322.472656 76.367188 323.007812 C 80.585938 328.992188 85.210938 334.714844 90.164062 340.082031 C 89.140625 341.074219 88.121094 342.035156 87.097656 342.929688 Z M 127.660156 282.894531 C 126.160156 280.074219 124.628906 277.265625 123.027344 274.515625 C 121.460938 271.800781 119.832031 269.113281 118.140625 266.460938 C 123.285156 267.101562 128.203125 267.960938 132.800781 269.019531 C 131.332031 273.753906 129.605469 278.355469 127.660156 282.894531 Z M 127.71875 298.8125 C 129.765625 303.453125 131.554688 308.152344 133.117188 312.980469 C 128.164062 314.101562 123.15625 314.96875 118.109375 315.539062 C 119.832031 312.851562 121.460938 310.105469 123.058594 307.355469 C 124.6875 304.539062 126.222656 301.691406 127.71875 298.8125 Z M 124.027344 290.859375 C 121.890625 295.273438 119.585938 299.621094 117.132812 303.902344 C 114.707031 308.152344 112.121094 312.28125 109.410156 316.371094 C 104.652344 316.726562 99.699219 316.882812 94.6875 316.882812 C 89.671875 316.882812 84.820312 316.726562 80.128906 316.433594 C 77.347656 312.375 74.734375 308.214844 72.273438 303.964844 C 69.8125 299.714844 67.546875 295.398438 65.40625 290.984375 L 65.394531 290.984375 C 67.496094 286.570312 69.800781 282.25 72.226562 278.003906 C 74.652344 273.753906 77.273438 269.625 80.019531 265.566406 C 84.808594 265.210938 89.691406 265.019531 94.679688 265.019531 C 99.667969 265.019531 104.578125 265.210938 109.339844 265.566406 C 112.050781 269.597656 114.640625 273.71875 117.097656 277.941406 C 119.558594 282.164062 121.855469 286.480469 124.027344 290.859375 Z M 66.277344 274.578125 C 64.710938 277.292969 63.179688 280.070312 61.742188 282.886719 C 59.730469 278.125 58.035156 273.460938 56.632812 268.949219 C 61.230469 267.925781 66.113281 267.09375 71.191406 266.453125 C 69.507812 269.105469 67.84375 271.820312 66.277344 274.578125 Z M 61.746094 299.066406 C 63.21875 301.882812 64.71875 304.667969 66.3125 307.414062 C 67.941406 310.199219 69.601562 312.980469 71.359375 315.695312 C 66.378906 315.152344 61.429688 314.351562 56.542969 313.296875 C 57.945312 308.691406 59.703125 303.929688 61.746094 299.066406 Z M 94.933594 335.160156 C 91.675781 331.644531 88.417969 327.75 85.257812 323.554688 C 88.324219 323.683594 91.484375 323.746094 94.679688 323.746094 C 97.96875 323.746094 101.191406 323.683594 104.386719 323.519531 C 101.453125 327.578125 98.289062 331.453125 94.933594 335.160156 Z M 136.671875 344.761719 C 136.378906 348.65625 134.464844 352.300781 131.398438 354.761719 C 126.324219 357.703125 115.5 353.871094 103.808594 343.828125 C 102.464844 342.675781 101.125 341.425781 99.753906 340.152344 C 104.640625 334.75 109.144531 329.027344 113.230469 323.015625 C 120.539062 322.410156 127.824219 321.289062 135.007812 319.660156 C 135.328125 320.96875 135.617188 322.28125 135.875 323.5625 C 137.441406 330.472656 137.695312 337.660156 136.671875 344.761719 Z M 139.445312 270.710938 C 141.105469 271.1875 142.699219 271.699219 144.234375 272.210938 C 159.113281 277.328125 169.554688 284.941406 169.554688 290.757812 C 169.554688 297.027344 158.410156 305.117188 142.476562 310.390625 C 141.582031 310.675781 140.691406 310.964844 139.765625 311.222656 C 137.53125 304.25 134.785156 297.441406 131.625 290.820312 C 134.691406 284.296875 137.277344 277.578125 139.445312 270.710938 Z M 103.257812 238.609375 C 115.144531 228.253906 126.222656 224.195312 131.269531 227.101562 C 136.664062 230.203125 138.742188 242.734375 135.355469 259.203125 C 135.132812 260.285156 134.90625 261.34375 134.621094 262.402344 C 127.53125 260.804688 120.347656 259.652344 113.128906 259.011719 C 108.980469 253.054688 104.441406 247.367188 99.523438 242.027344 C 100.769531 240.847656 101.984375 239.726562 103.257812 238.609375 Z M 94.742188 246.925781 C 98.09375 250.566406 101.253906 254.398438 104.191406 258.363281 C 97.867188 258.078125 91.511719 258.078125 85.191406 258.363281 C 88.316406 254.242188 91.546875 250.410156 94.742188 246.925781 Z M 57.695312 227.328125 C 63.0625 224.195312 74.972656 228.671875 87.519531 239.796875 C 88.316406 240.5 89.113281 241.269531 89.945312 242.03125 C 84.992188 247.367188 80.429688 253.054688 76.246094 259.003906 C 69.03125 259.644531 61.878906 260.765625 54.785156 262.332031 C 54.371094 260.703125 54.023438 259.039062 53.667969 257.375 C 50.664062 241.898438 52.648438 230.230469 57.695312 227.328125 Z M 44.445312 272.402344 C 46.261719 271.761719 48.117188 271.1875 49.96875 270.640625 C 52.140625 277.578125 54.757812 284.394531 57.789062 290.976562 C 54.722656 297.660156 52.074219 304.566406 49.875 311.597656 L 49.867188 311.605469 C 48.523438 311.222656 47.21875 310.804688 45.910156 310.355469 C 39.109375 308.214844 31.378906 304.824219 25.792969 300.382812 C 22.570312 298.144531 20.394531 294.695312 19.789062 290.820312 C 19.789062 284.96875 29.878906 277.484375 44.445312 272.402344 Z M 44.445312 272.402344 " fill-opacity="1" fill-rule="nonzero"/></g></svg>